{"title":"Hitler.The.Rise.of.Evil.2003.HDRip.avi","uid":9654310,"size":3347178156,"categoryP":"video","categoryS":"hd___movies","magnet":"?xt=urn:btih:98892a5e18feedb953f358e3e547c320ccf1533a&amp;dn=Hitler.The.Rise.of.Evil.2003.HDRip.avi&amp;tr=udp%3A%2F%2Ftracker.openbittorrent.com%3A80&amp;tr=udp%3A%2F%2Fopen.demonii.com%3A1337&amp;tr=udp%3A%2F%2Ftracker.coppersurfer.tk%3A6969&amp;tr=udp%3A%2F%2Fexodus.desync.com%3A6969","seeders":0,"leechers":1,"uploader":"niif111","files":1,"time":1393153664,"description":"Hitler.The.Rise.of.Evil.2003.HDRip.avi\nFormat                                   : AVI\nFormat/Info                              : Audio Video Interleave\nFormat profile                           : OpenDML\nFile size                                : 3.12 GiB\nDuration                                 : 3h 4mn\nOverall bit rate                         : 2 422 Kbps\nWriting application                      : XviD4PSP 7.0 / 55.21.100\n\nVideo\nID                                       : 0\nFormat                                   : MPEG-4 Visual\nFormat profile                           : Advanced Simple@L5\nFormat settings, BVOP                    : 1\nFormat settings, QPel                    : No\nFormat settings, GMC                     : No warppoints\nFormat settings, Matrix                  : Default (H.263)\nCodec ID                                 : XVID\nCodec ID/Hint                            : XviD\nDuration                                 : 3h 4mn\nBit rate                                 : 1 800 Kbps\nWidth                                    : 720 pixels\nHeight                                   : 408 pixels\nDisplay aspect ratio                     : 16:9\nFrame rate                               : 24.000 fps\nColor space                              : YUV\nChroma subsampling                       : 4:2:0\nBit depth                                : 8 bits\nScan type                                : Progressive\nCompression mode                         : Lossy\nBits/(Pixel*Frame)                       : 0.255\nStream size                              : 2.32 GiB (74%)\nTitle                                    : \nWriting library                          : XviD 64\n\nAudio #1 RUS\nID                                       : 1\nFormat                                   : AC-3\nFormat/Info                              : Audio Coding 3\nMode extension                           : CM (complete main)\nFormat settings, Endianness              : Big\nCodec ID                                 : 2000\nDuration                                 : 3h 4mn\nBit rate mode                            : Constant\nBit rate                                 : 384 Kbps\nChannel(s)                               : 6 channels\nChannel positions                        : Front: L C R, Side: L R, LFE\nSampling rate                            : 48.0 KHz\nBit depth                                : 16 bits\nCompression mode                         : Lossy\nStream size                              : 506 MiB (16%)\nAlignment                                : Aligned on interleaves\nInterleave, duration                     : 32 ms (0.77 video frame)\nTitle                                    : \n\n\nAudio #2 Eng\nID                                       : 2\nFormat                                   : AC-3\nFormat/Info                              : Audio Coding 3\nMode extension                           : CM (complete main)\nFormat settings, Endianness              : Big\nCodec ID                                 : 2000\nDuration                                 : 3h 4mn\nBit rate mode                            : Constant\nBit rate                                 : 224 Kbps\nChannel(s)                               : 2 channels\nChannel positions                        : Front: L R\nSampling rate                            : 48.0 KHz\nBit depth                                : 16 bits\nCompression mode                         : Lossy\nStream size                              : 295 MiB (9%)\nAlignment                                : Aligned on interleaves\nInterleave, duration                     : 32 ms (0.77 video frame)\nTitle                                    : Original track","torrent":{"xt":"urn:btih:98892a5e18feedb953f358e3e547c320ccf1533a","amp;dn":"Hitler.The.Rise.of.Evil.2003.HDRip.avi","amp;tr":["udp%3A%2F%2Ftracker.openbittorrent.com%3A80","udp%3A%2F%2Fopen.demonii.com%3A1337","udp%3A%2F%2Ftracker.coppersurfer.tk%3A6969","udp%3A%2F%2Fexodus.desync.com%3A6969"],"infoHash":"98892a5e18feedb953f358e3e547c320ccf1533a","infoHashBuffer":{"type":"Buffer","data":[152,137,42,94,24,254,237,185,83,243,88,227,229,71,195,32,204,241,83,58]},"announce":[],"urlList":[]}}